<?xml version="1.0" encoding="UTF-8" standalone="no"?>
<svg
   xmlns:dc="http://purl.org/dc/elements/1.1/"
   xmlns:cc="http://creativecommons.org/ns#"
   xmlns:rdf="http://www.w3.org/1999/02/22-rdf-syntax-ns#"
   xmlns:svg="http://www.w3.org/2000/svg"
   xmlns="http://www.w3.org/2000/svg"
   xmlns:sodipodi="http://sodipodi.sourceforge.net/DTD/sodipodi-0.dtd"
   xmlns:inkscape="http://www.inkscape.org/namespaces/inkscape"
   version="1.2"
   id="Ebene_1"
   x="0px"
   y="0px"
   width="110"
   height="110"
   viewBox="1.4 575.255 110 109.99999"
   xml:space="preserve"
   sodipodi:docname="racoontrace.svg"
   inkscape:version="1.0.1 (3bc2e813f5, 2020-09-07)"><metadata
   id="metadata41"><rdf:RDF><cc:Work
       rdf:about=""><dc:format>image/svg+xml</dc:format><dc:type
         rdf:resource="http://purl.org/dc/dcmitype/StillImage" /><dc:title></dc:title></cc:Work></rdf:RDF></metadata><defs
   id="defs39">
	
	
	
	
	
	
	
	
	
	
	
	
	
	
	
</defs><sodipodi:namedview
   pagecolor="#000000"
   bordercolor="#666666"
   borderopacity="1"
   objecttolerance="10"
   gridtolerance="10"
   guidetolerance="10"
   inkscape:pageopacity="0"
   inkscape:pageshadow="2"
   inkscape:window-width="1918"
   inkscape:window-height="1008"
   id="namedview37"
   showgrid="false"
   showguides="true"
   inkscape:guide-bbox="true"
   inkscape:zoom="4.875139"
   inkscape:cx="66.222151"
   inkscape:cy="54.575345"
   inkscape:window-x="2147"
   inkscape:window-y="1080"
   inkscape:window-maximized="0"
   inkscape:current-layer="Ebene_1"
   fit-margin-top="0"
   fit-margin-left="0"
   fit-margin-right="0"
   fit-margin-bottom="0" />

<g
   id="g944"
   transform="translate(1.9109709,0.82815229)"><g
     id="g916"
     transform="translate(-5.5065846,6.2690901)"><g
       id="g8">
		<path
   fill="#706f6f"
   stroke="#ffffff"
   stroke-width="4.5882"
   stroke-miterlimit="10"
   d="m 96.961914,649.51722 c 8.749506,-9.47307 11.656036,-15.95477 11.656036,-36.88865 0,-20.25871 -18.36882,-37.34852 -20.33582,-39.54952 L 80.39,589.535 c -5.802,-3.231 -12.479,-5.062 -19.566,-5.062 -7.086,0 -13.764,1.83 -19.565,5.062 l -7.961087,-16.3251 c -2.006,2.355 -22.359387,19.17759 -21.921869,39.32126 0.437518,20.14367 4.565862,27.52787 13.540304,37.20364 8.709124,9.38972 23.19621,15.81438 35.014951,15.81438 11.818741,0 28.42962,-6.71968 37.030615,-16.03196 z"
   id="path6"
   sodipodi:nodetypes="ssccscczazs"
   style="fill:#800000" />
	</g><ellipse
       fill="#010202"
       cx="60.025002"
       cy="656.00201"
       rx="6.9889998"
       ry="6.7360001"
       id="ellipse10" /><path
       fill="#ffffff"
       stroke="#706f6f"
       stroke-width="4.5882"
       stroke-miterlimit="10"
       d="m 55.936,661.414 c 0,0 -41.663,-8.079 -41.663,-48.38 0,0 21.728,-3.252 32.63,10.688 10.902,13.94 9.033,37.692 9.033,37.692 z"
       id="path12"
       style="stroke:#800000" /><path
       fill="#ffffff"
       stroke="#706f6f"
       stroke-width="4.5882"
       stroke-miterlimit="10"
       d="m 63.861,661.414 c 0,0 41.663,-6.094 41.663,-48.38 0,0 -21.728,-3.252 -32.63,10.688 -10.883,13.921 -9.033,37.692 -9.033,37.692 z"
       id="path14"
       style="stroke:#800000" /><path
       fill="#ffffff"
       d="m 34.813,592.728 -3.466,-6.074 c 0,0 -6.6,4.75 -8.196,11.098 0.019,-10e-4 6.152,-3.954 11.662,-5.024 z"
       id="path16" /><path
       fill="#ffffff"
       d="m 85.003,591.403 3.466,-6.074 c 0,0 6.6,4.751 8.196,11.098 -0.019,0 -6.152,-3.952 -11.662,-5.024 z"
       id="path18" /><path
       fill="#010202"
       d="m 14.72,619.965 c 0,0 18.185,0.798 24.084,6.697 5.898,5.899 10.727,15.127 10.182,20.423 -0.545,5.296 -7.768,-3.815 -18.495,-8.099 -10.727,-4.284 -11.507,-4.653 -11.507,-4.653 0,0 -3.835,-7.437 -4.264,-14.368 z"
       id="path22" /><path
       fill="#010202"
       d="m 105.543,619.965 c 0,0 -18.184,0.798 -24.083,6.697 -5.899,5.899 -10.728,15.127 -10.183,20.423 0.545,5.296 7.769,-3.815 18.496,-8.099 10.727,-4.284 11.506,-4.653 11.506,-4.653 0,0 3.817,-7.437 4.264,-14.368 z"
       id="path24" /><circle
       fill="#ffffff"
       cx="42.521999"
       cy="639.43402"
       r="2.375"
       id="circle26" /><circle
       fill="#ffffff"
       cx="77.800003"
       cy="639.43402"
       r="2.375"
       id="circle32" /><text
       xml:space="preserve"
       style="font-style:normal;font-variant:normal;font-weight:normal;font-stretch:normal;font-size:9.47596px;line-height:125%;font-family:Calibri;-inkscape-font-specification:Calibri;letter-spacing:0px;word-spacing:0px;fill:#000000;fill-opacity:1;stroke:none;stroke-width:0.999998px;stroke-linecap:butt;stroke-linejoin:miter;stroke-opacity:1"
       x="6.6412578"
       y="677.32013"
       id="text897"><tspan
         sodipodi:role="line"
         id="tspan895"
         x="6.6412578"
         y="677.32013"
         style="font-style:normal;font-variant:normal;font-weight:normal;font-stretch:normal;font-family:Ethnocentric;-inkscape-font-specification:Ethnocentric;fill:#ffffff;stroke-width:0.999998px">RacoonTrace</tspan></text></g></g></svg>
