<?xml version="1.0" encoding="UTF-8" standalone="no"?>
<svg
   xmlns:dc="http://purl.org/dc/elements/1.1/"
   xmlns:cc="http://creativecommons.org/ns#"
   xmlns:rdf="http://www.w3.org/1999/02/22-rdf-syntax-ns#"
   xmlns:svg="http://www.w3.org/2000/svg"
   xmlns="http://www.w3.org/2000/svg"
   xmlns:sodipodi="http://sodipodi.sourceforge.net/DTD/sodipodi-0.dtd"
   xmlns:inkscape="http://www.inkscape.org/namespaces/inkscape"
   width="256"
   height="256"
   viewBox="0 0 67.733332 67.733335"
   version="1.1"
   id="svg8"
   inkscape:version="1.0.1 (3bc2e813f5, 2020-09-07)"
   sodipodi:docname="resize.svg">
  <defs
     id="defs2">
    <marker
       style="overflow:visible"
       id="Tail"
       refX="0.0"
       refY="0.0"
       orient="auto"
       inkscape:stockid="Tail"
       inkscape:isstock="true">
      <g
         transform="scale(-1.2)"
         id="g883"
         style="stroke:#000000;stroke-opacity:1;fill:#000000;fill-opacity:1">
        <path
           style="fill:#000000;fill-rule:evenodd;stroke:#000000;stroke-width:0.8;stroke-linecap:round;stroke-opacity:1;fill-opacity:1"
           d="M -3.8048674,-3.9585227 L 0.54352094,0"
           id="path871" />
        <path
           style="fill:#000000;fill-rule:evenodd;stroke:#000000;stroke-width:0.8;stroke-linecap:round;stroke-opacity:1;fill-opacity:1"
           d="M -1.2866832,-3.9585227 L 3.0617053,0"
           id="path873" />
        <path
           style="fill:#000000;fill-rule:evenodd;stroke:#000000;stroke-width:0.8;stroke-linecap:round;stroke-opacity:1;fill-opacity:1"
           d="M 1.3053582,-3.9585227 L 5.6537466,0"
           id="path875" />
        <path
           style="fill:#000000;fill-rule:evenodd;stroke:#000000;stroke-width:0.8;stroke-linecap:round;stroke-opacity:1;fill-opacity:1"
           d="M -3.8048674,4.1775838 L 0.54352094,0.21974226"
           id="path877" />
        <path
           style="fill:#000000;fill-rule:evenodd;stroke:#000000;stroke-width:0.8;stroke-linecap:round;stroke-opacity:1;fill-opacity:1"
           d="M -1.2866832,4.1775838 L 3.0617053,0.21974226"
           id="path879" />
        <path
           style="fill:#000000;fill-rule:evenodd;stroke:#000000;stroke-width:0.8;stroke-linecap:round;stroke-opacity:1;fill-opacity:1"
           d="M 1.3053582,4.1775838 L 5.6537466,0.21974226"
           id="path881" />
      </g>
    </marker>
  </defs>
  <sodipodi:namedview
     id="base"
     pagecolor="#ffffff"
     bordercolor="#666666"
     borderopacity="1.0"
     inkscape:pageopacity="0.0"
     inkscape:pageshadow="2"
     inkscape:zoom="1.4"
     inkscape:cx="309.75955"
     inkscape:cy="148.6717"
     inkscape:document-units="mm"
     inkscape:current-layer="layer1"
     inkscape:document-rotation="0"
     showgrid="false"
     units="px"
     inkscape:window-width="3840"
     inkscape:window-height="1017"
     inkscape:window-x="1186"
     inkscape:window-y="1072"
     inkscape:window-maximized="1" />
  <metadata
     id="metadata5">
    <rdf:RDF>
      <cc:Work
         rdf:about="">
        <dc:format>image/svg+xml</dc:format>
        <dc:type
           rdf:resource="http://purl.org/dc/dcmitype/StillImage" />
        <dc:title></dc:title>
      </cc:Work>
    </rdf:RDF>
  </metadata>
  <g
     inkscape:label="Ebene 1"
     inkscape:groupmode="layer"
     id="layer1">
    <path
       id="path1375"
       style="color:#000000;font-style:normal;font-variant:normal;font-weight:normal;font-stretch:normal;font-size:medium;line-height:normal;font-family:sans-serif;font-variant-ligatures:normal;font-variant-position:normal;font-variant-caps:normal;font-variant-numeric:normal;font-variant-alternates:normal;font-variant-east-asian:normal;font-feature-settings:normal;font-variation-settings:normal;text-indent:0;text-align:start;text-decoration:none;text-decoration-line:none;text-decoration-style:solid;text-decoration-color:#000000;letter-spacing:normal;word-spacing:normal;text-transform:none;writing-mode:lr-tb;direction:ltr;text-orientation:mixed;dominant-baseline:auto;baseline-shift:baseline;text-anchor:start;white-space:normal;shape-padding:0;shape-margin:0;inline-size:0;clip-rule:nonzero;display:inline;overflow:visible;visibility:visible;isolation:auto;mix-blend-mode:normal;color-interpolation:sRGB;color-interpolation-filters:linearRGB;solid-color:#000000;solid-opacity:1;vector-effect:none;fill:#ffffff;fill-opacity:1;fill-rule:evenodd;stroke:none;stroke-width:9.99999;stroke-linecap:butt;stroke-linejoin:miter;stroke-miterlimit:4;stroke-dasharray:none;stroke-dashoffset:0;stroke-opacity:1;color-rendering:auto;image-rendering:auto;shape-rendering:auto;text-rendering:auto;enable-background:accumulate;stop-color:#000000"
       d="M 14.181641 10.001953 C 12.393222 10.012119 10.083984 10.087891 10.083984 10.087891 C 10.083984 10.087891 9.9517652 14.192307 10.017578 15.691406 L 12.751953 73.841797 C 12.797062 74.813786 13.199676 75.736816 13.880859 76.431641 C 13.944767 76.496157 14.009889 76.557282 14.078125 76.617188 C 14.846999 77.301426 15.85257 77.659496 16.880859 77.615234 C 19.07252 77.521993 20.771207 75.663883 20.667969 73.472656 L 18.048828 18.0625 L 73.458984 20.681641 C 75.650192 20.784894 77.508322 19.086207 77.601562 16.894531 C 77.697147 14.713635 76.008773 12.86627 73.828125 12.765625 L 15.691406 10.017578 C 15.315986 10.000908 14.77778 9.9985645 14.181641 10.001953 z M 241.81836 10.001953 C 241.22222 9.9985645 240.68401 10.000908 240.30859 10.017578 L 182.17188 12.765625 C 179.99123 12.86627 178.30285 14.713635 178.39844 16.894531 C 178.49168 19.086207 180.34981 20.784894 182.54102 20.681641 L 237.95117 18.0625 L 235.33203 73.472656 C 235.22879 75.663883 236.92748 77.521993 239.11914 77.615234 C 240.14743 77.659496 241.153 77.301426 241.92188 76.617188 C 241.9901 76.557282 242.05523 76.496157 242.11914 76.431641 C 242.80033 75.736816 243.20292 74.813786 243.24805 73.841797 L 245.98242 15.691406 C 246.04822 14.192307 245.91602 10.087891 245.91602 10.087891 C 245.91602 10.087891 243.60678 10.012119 241.81836 10.001953 z M 32.333984 28.150391 C 30.54324 28.156958 28.228516 28.230469 28.228516 28.230469 C 28.228516 28.230469 28.100548 32.344704 28.171875 33.845703 L 30.892578 91.982422 C 30.937687 92.954411 31.338357 93.875495 32.019531 94.570312 C 32.083439 94.634829 32.150511 94.697869 32.21875 94.757812 C 32.98762 95.442051 33.991236 95.800121 35.019531 95.755859 C 37.211186 95.662618 38.909878 93.804511 38.806641 91.613281 L 36.1875 36.201172 L 91.599609 38.820312 C 93.790817 38.923569 95.646993 37.224883 95.740234 35.033203 C 95.835781 32.852318 94.149394 31.006901 91.96875 30.90625 L 33.845703 28.171875 C 33.470134 28.153934 32.930899 28.148202 32.333984 28.150391 z M 223.66602 28.150391 C 223.0691 28.148202 222.52987 28.153934 222.1543 28.171875 L 164.03125 30.90625 C 161.85061 31.006901 160.16422 32.852318 160.25977 35.033203 C 160.35301 37.224883 162.20919 38.923569 164.40039 38.820312 L 219.8125 36.201172 L 217.19336 91.613281 C 217.09012 93.804511 218.78881 95.662618 220.98047 95.755859 C 222.00876 95.800121 223.01238 95.442051 223.78125 94.757812 C 223.84947 94.697869 223.91656 94.634829 223.98047 94.570312 C 224.66165 93.875495 225.06229 92.954411 225.10742 91.982422 L 227.82812 33.845703 C 227.89944 32.344704 227.77148 28.230469 227.77148 28.230469 C 227.77148 28.230469 225.45676 28.156958 223.66602 28.150391 z M 49.953125 45.771484 C 48.16238 45.778048 45.849609 45.851562 45.849609 45.851562 C 45.849609 45.851562 45.721649 49.963846 45.792969 51.464844 L 48.511719 109.60352 C 48.556809 110.5755 48.959441 111.49658 49.640625 112.19141 C 49.704537 112.25592 49.769632 112.31705 49.837891 112.37695 C 50.608083 113.06951 51.619466 113.43282 52.654297 113.38867 C 54.846139 113.28821 56.538894 111.42571 56.427734 109.23438 L 54.109375 59.949219 L 114.16602 120.00586 L 120 114.17383 L 59.951172 54.123047 L 109.21875 56.441406 C 111.41007 56.552562 113.27455 54.859823 113.375 52.667969 C 113.47822 50.476739 111.77955 48.618628 109.58789 48.525391 L 51.464844 45.792969 C 51.089275 45.775025 50.55004 45.769296 49.953125 45.771484 z M 206.04688 45.771484 C 205.44996 45.769296 204.91073 45.775025 204.53516 45.792969 L 146.41211 48.525391 C 144.22045 48.618628 142.52178 50.476739 142.625 52.667969 C 142.72545 54.859823 144.58993 56.552562 146.78125 56.441406 L 196.04883 54.123047 L 136 114.17383 L 141.83398 120.00586 L 201.89062 59.949219 L 199.57227 109.23438 C 199.46111 111.42571 201.15386 113.28821 203.3457 113.38867 C 204.38053 113.43282 205.39192 113.06951 206.16211 112.37695 C 206.23037 112.31705 206.29546 112.25592 206.35938 112.19141 C 207.04056 111.49658 207.44319 110.5755 207.48828 109.60352 L 210.20703 51.464844 C 210.27835 49.963846 210.15039 45.851562 210.15039 45.851562 C 210.15039 45.851562 207.83762 45.778048 206.04688 45.771484 z M 127.9707 119.60742 A 8.3928571 8.3928571 0 0 0 119.60742 128 A 8.3928571 8.3928571 0 0 0 128 136.39258 A 8.3928571 8.3928571 0 0 0 136.39258 128 A 8.3928571 8.3928571 0 0 0 128 119.60742 A 8.3928571 8.3928571 0 0 0 127.9707 119.60742 z M 114.16602 135.99219 L 54.109375 196.05078 L 56.427734 146.76562 C 56.538894 144.57429 54.846139 142.70983 52.654297 142.60938 C 51.619466 142.56523 50.608083 142.92853 49.837891 143.62109 C 49.769632 143.681 49.704537 143.74408 49.640625 143.80859 C 48.959441 144.50342 48.556809 145.4245 48.511719 146.39648 L 45.792969 204.53516 C 45.721649 206.03615 45.849609 210.14844 45.849609 210.14844 C 45.849609 210.14844 49.962568 210.2788 51.464844 210.20703 L 109.58789 207.47266 C 111.77955 207.37942 113.47822 205.52326 113.375 203.33203 C 113.27455 201.14018 111.41007 199.44744 109.21875 199.55859 L 59.951172 201.875 L 120 141.82617 L 114.16602 135.99219 z M 141.83398 135.99219 L 136 141.82617 L 196.04883 201.875 L 146.78125 199.55859 C 144.58993 199.44744 142.72545 201.14018 142.625 203.33203 C 142.52178 205.52326 144.22045 207.37942 146.41211 207.47266 L 204.53516 210.20703 C 206.03743 210.2788 210.15039 210.14844 210.15039 210.14844 C 210.15039 210.14844 210.27835 206.03615 210.20703 204.53516 L 207.48828 146.39648 C 207.44319 145.4245 207.04056 144.50342 206.35938 143.80859 C 206.29546 143.74408 206.23037 143.681 206.16211 143.62109 C 205.39192 142.92853 204.38053 142.56523 203.3457 142.60938 C 201.15386 142.70983 199.46111 144.57429 199.57227 146.76562 L 201.89062 196.05078 L 141.83398 135.99219 z M 35.019531 160.24414 C 33.991236 160.19988 32.98762 160.55795 32.21875 161.24219 C 32.150511 161.30213 32.083439 161.36517 32.019531 161.42969 C 31.338357 162.1245 30.937687 163.04559 30.892578 164.01758 L 28.171875 222.1543 C 28.100548 223.65529 28.228516 227.76758 28.228516 227.76758 C 28.228516 227.76758 32.343428 227.89989 33.845703 227.82812 L 91.96875 225.09375 C 94.149394 224.9931 95.835781 223.14573 95.740234 220.96484 C 95.646993 218.77316 93.790817 217.07643 91.599609 217.17969 L 36.1875 219.79688 L 38.806641 164.38672 C 38.909878 162.19549 37.211186 160.33738 35.019531 160.24414 z M 220.98047 160.24414 C 218.78881 160.33738 217.09012 162.19549 217.19336 164.38672 L 219.8125 219.79688 L 164.40039 217.17969 C 162.20919 217.07643 160.35301 218.77316 160.25977 220.96484 C 160.16422 223.14573 161.85061 224.9931 164.03125 225.09375 L 222.1543 227.82812 C 223.65657 227.8999 227.77148 227.76758 227.77148 227.76758 C 227.77148 227.76758 227.89944 223.65529 227.82812 222.1543 L 225.10742 164.01758 C 225.06229 163.04559 224.66165 162.1245 223.98047 161.42969 C 223.91656 161.36517 223.84947 161.30213 223.78125 161.24219 C 223.01238 160.55795 222.00876 160.19988 220.98047 160.24414 z M 16.880859 178.38477 C 15.85257 178.3405 14.846999 178.69857 14.078125 179.38281 C 14.009889 179.44272 13.944767 179.50384 13.880859 179.56836 C 13.199676 180.26318 12.797062 181.18426 12.751953 182.15625 L 10.017578 240.30859 C 9.9517652 241.80769 10.083984 245.91211 10.083984 245.91211 C 10.083984 245.91211 14.189724 246.04714 15.691406 245.98047 L 73.828125 243.23438 C 76.008773 243.13373 77.697147 241.28637 77.601562 239.10547 C 77.508322 236.91379 75.650192 235.2151 73.458984 235.31836 L 18.048828 237.9375 L 20.667969 182.52539 C 20.771207 180.33416 19.07252 178.47801 16.880859 178.38477 z M 239.11914 178.38477 C 236.92748 178.47801 235.22879 180.33416 235.33203 182.52539 L 237.95117 237.9375 L 182.54102 235.31836 C 180.34981 235.2151 178.49168 236.91379 178.39844 239.10547 C 178.30285 241.28637 179.99123 243.13373 182.17188 243.23438 L 240.30859 245.98047 C 241.81028 246.04714 245.91602 245.91211 245.91602 245.91211 C 245.91602 245.91211 246.04822 241.80769 245.98242 240.30859 L 243.24805 182.15625 C 243.20292 181.18426 242.80033 180.26318 242.11914 179.56836 C 242.05523 179.50384 241.9901 179.44272 241.92188 179.38281 C 241.153 178.69857 240.14743 178.3405 239.11914 178.38477 z "
       transform="scale(0.26458333)" />
  </g>
</svg>
